<?xml version="1.0" encoding="utf-8"?>
<!-- Generator: Adobe Illustrator 25.3.1, SVG Export Plug-In . SVG Version: 6.00 Build 0)  -->
<svg version="1.1" id="Capa_1" xmlns="http://www.w3.org/2000/svg" xmlns:xlink="http://www.w3.org/1999/xlink" x="0px" y="0px"
	 viewBox="0 0 687 450" style="enable-background:new 0 0 687 450;" xml:space="preserve">
<style type="text/css">
	.st0{fill:#FBB03B;}
	.st1{fill:#FFFFFF;}
</style>
<g>
	<path d="M115.6-0.1h151.6c11,0,20,9,20,20v16.4c27.4,9.1,54.7,18.2,81.9,27.3c8.2,2.7,13.7,10.4,13.7,19l0,189h-63.7v111.3H63.4
		V271.4c-1.8,0-3.2,0-4.5,0c-19.7,0.1-39.4,0.1-59.1,0.2V82.5c0-8.6,5.5-16.3,13.8-19c11.7-3.8,23.4-7.7,35.2-11.6
		c15.6-5.2,31.1-10.4,46.9-15.6V19.9C95.6,8.9,104.5-0.1,115.6-0.1z M95.5,287.1c64.2,0,127.9,0,191.8,0c0-47.9,0-95.5,0-143.2
		c10.7,0,21.1,0,32,0c0,10.6,0,21,0,31.6c10.8,0,21,0,31.5,0c0.1-1,0.3-1.9,0.3-2.7c0-26.2,0-52.4,0.1-78.6c0-2.4-0.9-3.2-3-3.9
		c-13.4-4.4-26.7-8.8-40.1-13.3c-6.8-2.3-13.6-4.5-20.8-6.9c0,4.8-0.2,9.2,0.1,13.6c0.1,2.8-0.7,4.5-2.9,6.3
		c-23.1,18.2-46.1,36.6-69.2,54.9c-8.1,6.4-16.2,12.8-24.1,19.1c-0.6-0.3-0.8-0.3-1-0.5c-30.9-24.9-61.8-49.7-92.7-74.6
		c-1-0.8-1.7-2.4-1.7-3.7c-0.2-4.8-0.1-9.7-0.1-14.9c-1.4,0.4-2.4,0.6-3.5,0.9c-19,6.3-38,12.8-57.1,19c-2.7,0.9-3.3,2.1-3.3,4.8
		c0.1,25.6,0,51.2,0.1,76.7c0,1.2,0.1,2.4,0.2,3.7c10.7,0,21,0,31.7,0c0-10.6,0-20.9,0-31.5c10.7,0,21.2,0,31.8,0
		C95.5,191.6,95.5,239.2,95.5,287.1z M255.2,32.2c-42.8,0-85.1,0-127.6,0c0,13.1-0.1,25.9,0.1,38.7c0,1.1,1.2,2.3,2.2,3.1
		c9.1,7.4,18.2,14.7,27.4,22.1c11.2,9,22.3,18,33.7,27.1c1.2-0.9,2.3-1.8,3.3-2.6c17.9-14.2,35.5-28.7,53.7-42.5
		c5.6-4.2,7.9-8.5,7.4-15.5C254.7,52.6,255.2,42.5,255.2,32.2z M95.8,350.9c63.9,0,127.6,0,191.2,0c0-10.6,0-20.9,0-31.4
		c-63.8,0-127.4,0-191.2,0C95.8,330,95.8,340.3,95.8,350.9z M32,207.7c0,10.8,0,21.2,0,31.6c10.6,0,20.9,0,31.3,0
		c0-10.6,0-21,0-31.6C52.8,207.7,42.6,207.7,32,207.7z M350.9,207.7c-10.6,0-20.9,0-31.4,0c0,10.6,0,21,0,31.6c10.5,0,20.9,0,31.4,0
		C350.9,228.7,350.9,218.4,350.9,207.7z"/>
	<path class="st0" d="M95.5,287.1c0-47.9,0-95.5,0-143.2c-10.7,0-21.1,0-31.8,0c0,10.5,0,20.8,0,31.5c-10.7,0-21.1,0-31.7,0
		c-0.1-1.3-0.2-2.5-0.2-3.7c0-25.6,0-51.2-0.1-76.7c0-2.6,0.6-3.9,3.3-4.8c19.1-6.2,38-12.6,57.1-19c1-0.3,2.1-0.6,3.5-0.9
		c0,5.2-0.1,10,0.1,14.9c0.1,1.3,0.8,2.9,1.7,3.7c30.9,24.9,61.8,49.8,92.7,74.6c0.2,0.1,0.4,0.2,1,0.5c7.9-6.3,16-12.7,24.1-19.1
		c23-18.3,46.1-36.7,69.2-54.9c2.2-1.8,3-3.5,2.9-6.3c-0.2-4.3-0.1-8.7-0.1-13.6c7.2,2.4,14,4.7,20.8,6.9
		c13.4,4.4,26.7,8.9,40.1,13.3c2.1,0.7,3,1.5,3,3.9c-0.1,26.2,0,52.4-0.1,78.6c0,0.8-0.2,1.7-0.3,2.7c-10.4,0-20.7,0-31.5,0
		c0-10.6,0-21,0-31.6c-10.9,0-21.3,0-32,0c0,47.8,0,95.4,0,143.2C223.3,287.1,159.7,287.1,95.5,287.1z"/>
	<path class="st1" d="M255.2,32.2c0,10.3-0.5,20.4,0.2,30.5c0.1,7.4-1.8,11.2-7.4,15.5c-18.2,13.8-35.8,28.3-53.7,42.5
		c-1.1,0.8-2.1,1.7-3.3,2.6c-11.3-9.1-22.5-18.1-33.7-27.1c-9.1-7.3-18.3-14.7-27.4-22.1c-1-0.8-2.2-2.1-2.2-3.1
		c-0.2-12.8-0.1-25.6-0.1-38.7C170.1,32.2,212.4,32.2,255.2,32.2z"/>
	<path class="st1" d="M95.8,350.9c0-10.6,0-20.9,0-31.4c63.8,0,127.4,0,191.2,0c0,10.5,0,20.8,0,31.4
		C223.3,350.9,159.7,350.9,95.8,350.9z"/>
	<path class="st1" d="M32,207.7c10.5,0,20.8,0,31.3,0c0,10.6,0,21,0,31.6c-10.5,0-20.7,0-31.3,0C32,228.8,32,218.5,32,207.7z"/>
	<path class="st1" d="M350.9,207.7c0,10.7,0,21,0,31.6c-10.5,0-20.9,0-31.4,0c0-10.6,0-21,0-31.6
		C329.9,207.7,340.2,207.7,350.9,207.7z"/>
</g>
<g>
	<g>
		<path class="st1" d="M247.2,434.9c-19.6,0-35.5-15.9-35.5-35.5V227.1c0-19.6,15.9-35.5,35.5-35.5H636c19.6,0,35.5,15.9,35.5,35.5
			v172.3c0,19.6-15.9,35.5-35.5,35.5L247.2,434.9L247.2,434.9z"/>
		<path d="M636,207.1c11,0,20,8.9,20,20v172.3c0,11-9,20-20,20H247.2c-11.1,0-20-9-20-20V227.1c0-11.1,8.9-20,20-20H636 M636,176.1
			H247.2c-28.1,0-51,22.9-51,51v172.3c0,28.1,22.9,51,51,51H636c28.1,0,51-22.9,51-51V227.1C687,199,664.1,176.1,636,176.1
			L636,176.1z"/>
	</g>
	<g>
		<path d="M343.5,266.8c-1.4-5.2-3.9-9.6-7.5-13.3c-3.5-3.6-8.2-6.3-13.8-8c-5.2-1.6-11.4-2.4-19-2.4h-10.4c-7.6,0-13.8,0.8-19,2.4
			c-5.7,1.7-10.3,4.4-13.8,8c-3.6,3.6-6.1,8.1-7.4,13.4c-1.1,4.5-1.7,9.6-1.7,15.3v62.1c0,5.7,0.6,10.8,1.7,15.3
			c1.3,5.2,3.8,9.7,7.4,13.4c3.5,3.6,8.2,6.3,13.8,8c5.2,1.6,11.4,2.4,19,2.4h10.4c7.6,0,13.8-0.8,19-2.4c5.7-1.7,10.3-4.4,13.8-8
			c3.5-3.6,6-8.1,7.5-13.3c1.2-4.5,1.9-9.7,1.9-15.4v-13.5v-8.3H337h-15.1h-8.3v8.3v12.8c0,2.8-0.2,5.1-0.6,6.8
			c-0.2,0.8-0.5,1.4-0.7,1.6c-0.4,0.4-1.1,0.7-2.1,1c-1.1,0.3-3.3,0.7-7,0.7h-10.4c-2.9,0-5.2-0.2-6.9-0.7c-1.4-0.4-1.9-0.8-2.2-1
			c-0.3-0.3-0.5-0.8-0.7-1.6c-0.4-1.7-0.6-4-0.6-6.8v-60.7c0-2.8,0.2-5.1,0.6-6.8c0.2-0.8,0.5-1.4,0.7-1.6c0.2-0.2,0.8-0.6,2.2-1
			c1.2-0.3,3.4-0.7,6.9-0.7h10.4c3.7,0,5.8,0.4,7,0.7c1,0.3,1.7,0.6,2.1,1c0.1,0.1,0.4,0.5,0.7,1.6c0.4,1.7,0.6,4,0.6,6.8v12.8v8.3
			h8.3H337h8.3v-8.3v-13.5C345.3,276.5,344.7,271.3,343.5,266.8z"/>
		<path d="M460.7,371.4L421.8,250l-1.9-5.8h-6.1h-19.3h-6.1l-1.9,5.8l-38.9,121.4l-3.5,10.9h11.4h15.4h6.1l1.9-5.8l8.9-27.9h32.4
			l8.9,27.9l1.9,5.8h6.1h15.4h11.4L460.7,371.4z M411.3,319h-14.1l7-22.1L411.3,319z"/>
		<polygon points="583.2,244.2 564.5,244.2 558.6,244.2 556.7,249.7 529.1,327.4 501.8,249.8 499.8,244.2 493.9,244.2 475.2,244.2 
			466.8,244.2 466.8,252.5 466.8,374 466.8,382.3 475.2,382.3 490.1,382.3 498.4,382.3 498.4,374 498.4,332.2 514.3,376.8 
			516.3,382.3 522.2,382.3 536,382.3 541.9,382.3 543.9,376.8 560,332 560,374 560,382.3 568.3,382.3 583.2,382.3 591.6,382.3 
			591.6,374 591.6,252.5 591.6,244.2 		"/>
		<polygon points="624.1,244.2 609.2,244.2 600.9,244.2 600.9,252.5 600.9,374 600.9,382.3 609.2,382.3 624.1,382.3 632.5,382.3 
			632.5,374 632.5,252.5 632.5,244.2 		"/>
	</g>
</g>
</svg>
